<svg xmlns="http://www.w3.org/2000/svg" xmlns:xlink="http://www.w3.org/1999/xlink" width="300" zoomAndPan="magnify" viewBox="0 0 224.87999 149.999998" height="200" preserveAspectRatio="xMidYMid meet" version="1.0"><defs><clipPath id="8d373626a5"><path d="M 0 1.3125 L 224.761719 1.3125 L 224.761719 2.90625 L 0 2.90625 Z M 0 1.3125 " clip-rule="nonzero"/></clipPath><clipPath id="03814d831a"><path d="M 0 5.558594 L 224.761719 5.558594 L 224.761719 6.621094 L 0 6.621094 Z M 0 5.558594 " clip-rule="nonzero"/></clipPath><clipPath id="1eb0f41d92"><path d="M 0 10.335938 L 224.761719 10.335938 L 224.761719 11.929688 L 0 11.929688 Z M 0 10.335938 " clip-rule="nonzero"/></clipPath><clipPath id="020a34d172"><path d="M 0 17.234375 L 224.761719 17.234375 L 224.761719 18.828125 L 0 18.828125 Z M 0 17.234375 " clip-rule="nonzero"/></clipPath><clipPath id="a2bf4b550c"><path d="M 0 25.726562 L 224.761719 25.726562 L 224.761719 27 L 0 27 Z M 0 25.726562 " clip-rule="nonzero"/></clipPath><clipPath id="ddfcbbf73d"><path d="M 0 36.339844 L 224.761719 36.339844 L 224.761719 37.402344 L 0 37.402344 Z M 0 36.339844 " clip-rule="nonzero"/></clipPath><clipPath id="26d5f7e1af"><path d="M 0 49 L 224.761719 49 L 224.761719 50.140625 L 0 50.140625 Z M 0 49 " clip-rule="nonzero"/></clipPath><clipPath id="059cbd7cf8"><path d="M 0 64 L 224.761719 64 L 224.761719 65.53125 L 0 65.53125 Z M 0 64 " clip-rule="nonzero"/></clipPath><clipPath id="7da9dce5de"><path d="M 0 82.511719 L 224.761719 82.511719 L 224.761719 84 L 0 84 Z M 0 82.511719 " clip-rule="nonzero"/></clipPath><clipPath id="7822da312e"><path d="M 0 104.273438 L 224.761719 104.273438 L 224.761719 105.332031 L 0 105.332031 Z M 0 104.273438 " clip-rule="nonzero"/></clipPath><clipPath id="2ebb4e5e79"><path d="M 0 129.214844 L 224.761719 129.214844 L 224.761719 130.808594 L 0 130.808594 Z M 0 129.214844 " clip-rule="nonzero"/></clipPath><clipPath id="496e640464"><path d="M 0 0.0390625 L 7.726562 0.0390625 L 7.726562 149.699219 L 0 149.699219 Z M 0 0.0390625 " clip-rule="nonzero"/></clipPath><clipPath id="2047532cf6"><path d="M 217.28125 0.0390625 L 224.761719 0.0390625 L 224.761719 149.699219 L 217.28125 149.699219 Z M 217.28125 0.0390625 " clip-rule="nonzero"/></clipPath><clipPath id="4ca56bffc4"><path d="M 201.324219 0.0390625 L 224.761719 0.0390625 L 224.761719 149.699219 L 201.324219 149.699219 Z M 201.324219 0.0390625 " clip-rule="nonzero"/></clipPath><clipPath id="5f66499e11"><path d="M 201 0.0390625 L 224.761719 0.0390625 L 224.761719 149.699219 L 201 149.699219 Z M 201 0.0390625 " clip-rule="nonzero"/></clipPath><clipPath id="a3401c98ca"><path d="M 185 0.0390625 L 224.761719 0.0390625 L 224.761719 149.699219 L 185 149.699219 Z M 185 0.0390625 " clip-rule="nonzero"/></clipPath><clipPath id="e970989b81"><path d="M 184.835938 0.0390625 L 224.761719 0.0390625 L 224.761719 149.699219 L 184.835938 149.699219 Z M 184.835938 0.0390625 " clip-rule="nonzero"/></clipPath><clipPath id="eea58560c6"><path d="M 169 0.0390625 L 224.761719 0.0390625 L 224.761719 149.699219 L 169 149.699219 Z M 169 0.0390625 " clip-rule="nonzero"/></clipPath><clipPath id="1a6ae1e13f"><path d="M 168.351562 0.0390625 L 224.761719 0.0390625 L 224.761719 149.699219 L 168.351562 149.699219 Z M 168.351562 0.0390625 " clip-rule="nonzero"/></clipPath><clipPath id="0d8228ec3e"><path d="M 152.925781 0.0390625 L 221.535156 0.0390625 L 221.535156 149.699219 L 152.925781 149.699219 Z M 152.925781 0.0390625 " clip-rule="nonzero"/></clipPath><clipPath id="d1ab287021"><path d="M 152.394531 0.0390625 L 222 0.0390625 L 222 149.699219 L 152.394531 149.699219 Z M 152.394531 0.0390625 " clip-rule="nonzero"/></clipPath><clipPath id="e2de55d3bc"><path d="M 136.4375 0.0390625 L 177.921875 0.0390625 L 177.921875 149.699219 L 136.4375 149.699219 Z M 136.4375 0.0390625 " clip-rule="nonzero"/></clipPath><clipPath id="ac7dcac0f0"><path d="M 136 0.0390625 L 178.457031 0.0390625 L 178.457031 149.699219 L 136 149.699219 Z M 136 0.0390625 " clip-rule="nonzero"/></clipPath><clipPath id="90d63edfab"><path d="M 120.480469 0.0390625 L 134.308594 0.0390625 L 134.308594 149.699219 L 120.480469 149.699219 Z M 120.480469 0.0390625 " clip-rule="nonzero"/></clipPath><clipPath id="1af8d33428"><path d="M 120 0.0390625 L 134.84375 0.0390625 L 134.84375 149.699219 L 120 149.699219 Z M 120 0.0390625 " clip-rule="nonzero"/></clipPath><clipPath id="48b462a32c"><path d="M 90.699219 0.0390625 L 104.527344 0.0390625 L 104.527344 149.699219 L 90.699219 149.699219 Z M 90.699219 0.0390625 " clip-rule="nonzero"/></clipPath><clipPath id="2229fcccc1"><path d="M 90.164062 0.0390625 L 105 0.0390625 L 105 149.699219 L 90.164062 149.699219 Z M 90.164062 0.0390625 " clip-rule="nonzero"/></clipPath><clipPath id="656308ddfb"><path d="M 47.085938 0.0390625 L 88.570312 0.0390625 L 88.570312 149.699219 L 47.085938 149.699219 Z M 47.085938 0.0390625 " clip-rule="nonzero"/></clipPath><clipPath id="576ff76345"><path d="M 46.550781 0.0390625 L 89 0.0390625 L 89 149.699219 L 46.550781 149.699219 Z M 46.550781 0.0390625 " clip-rule="nonzero"/></clipPath><clipPath id="ba3f6a2099"><path d="M 3.472656 0.0390625 L 72.082031 0.0390625 L 72.082031 149.699219 L 3.472656 149.699219 Z M 3.472656 0.0390625 " clip-rule="nonzero"/></clipPath><clipPath id="90d7284746"><path d="M 3 0.0390625 L 72.613281 0.0390625 L 72.613281 149.699219 L 3 149.699219 Z M 3 0.0390625 " clip-rule="nonzero"/></clipPath><clipPath id="65a41950ff"><path d="M 0 0.0390625 L 56 0.0390625 L 56 149.699219 L 0 149.699219 Z M 0 0.0390625 " clip-rule="nonzero"/></clipPath><clipPath id="6839fa028f"><path d="M 0 0.0390625 L 56.65625 0.0390625 L 56.65625 149.699219 L 0 149.699219 Z M 0 0.0390625 " clip-rule="nonzero"/></clipPath><clipPath id="25fe0d4021"><path d="M 0 0.0390625 L 40 0.0390625 L 40 149.699219 L 0 149.699219 Z M 0 0.0390625 " clip-rule="nonzero"/></clipPath><clipPath id="f83026b9d5"><path d="M 0 0.0390625 L 40.171875 0.0390625 L 40.171875 149.699219 L 0 149.699219 Z M 0 0.0390625 " clip-rule="nonzero"/></clipPath><clipPath id="1d2dafe181"><path d="M 0 0.0390625 L 23.683594 0.0390625 L 23.683594 149.699219 L 0 149.699219 Z M 0 0.0390625 " clip-rule="nonzero"/></clipPath><clipPath id="a3e2391a23"><path d="M 0 0.0390625 L 24 0.0390625 L 24 149.699219 L 0 149.699219 Z M 0 0.0390625 " clip-rule="nonzero"/></clipPath></defs><g clip-path="url(#8d373626a5)"><path fill="#004aad" d="M -9.824219 2.613281 L 242.972656 2.613281 L 242.972656 1.671875 L -9.824219 1.671875 Z M -9.824219 2.613281 " fill-opacity="1" fill-rule="nonzero"/></g><g clip-path="url(#03814d831a)"><path fill="#004aad" d="M -9.824219 6.578125 L 243.03125 6.578125 L 243.03125 5.632812 L -9.824219 5.632812 Z M -9.824219 6.578125 " fill-opacity="1" fill-rule="nonzero"/></g><g clip-path="url(#1eb0f41d92)"><path fill="#004aad" d="M -9.824219 11.777344 L 243.105469 11.777344 L 243.105469 10.832031 L -9.824219 10.832031 Z M -9.824219 11.777344 " fill-opacity="1" fill-rule="nonzero"/></g><g clip-path="url(#020a34d172)"><path fill="#004aad" d="M -9.824219 18.457031 L 243.207031 18.457031 L 243.207031 17.511719 L -9.824219 17.511719 Z M -9.824219 18.457031 " fill-opacity="1" fill-rule="nonzero"/></g><g clip-path="url(#a2bf4b550c)"><path fill="#004aad" d="M -9.824219 26.867188 L 243.335938 26.867188 L 243.335938 25.917969 L -9.824219 25.917969 Z M -9.824219 26.867188 " fill-opacity="1" fill-rule="nonzero"/></g><g clip-path="url(#ddfcbbf73d)"><path fill="#004aad" d="M -9.824219 37.285156 L 243.492188 37.285156 L 243.492188 36.339844 L -9.824219 36.339844 Z M -9.824219 37.285156 " fill-opacity="1" fill-rule="nonzero"/></g><g clip-path="url(#26d5f7e1af)"><path fill="#004aad" d="M -9.824219 50.011719 L 243.679688 50.011719 L 243.679688 49.066406 L -9.824219 49.066406 Z M -9.824219 50.011719 " fill-opacity="1" fill-rule="nonzero"/></g><g clip-path="url(#059cbd7cf8)"><path fill="#004aad" d="M -9.824219 65.359375 L 243.910156 65.359375 L 243.910156 64.414062 L -9.824219 64.414062 Z M -9.824219 65.359375 " fill-opacity="1" fill-rule="nonzero"/></g><g clip-path="url(#7da9dce5de)"><path fill="#004aad" d="M -9.824219 83.671875 L 244.183594 83.671875 L 244.183594 82.726562 L -9.824219 82.726562 Z M -9.824219 83.671875 " fill-opacity="1" fill-rule="nonzero"/></g><g clip-path="url(#7822da312e)"><path fill="#004aad" d="M -9.824219 105.300781 L 244.507812 105.300781 L 244.507812 104.355469 L -9.824219 104.355469 Z M -9.824219 105.300781 " fill-opacity="1" fill-rule="nonzero"/></g><g clip-path="url(#2ebb4e5e79)"><path fill="#004aad" d="M -9.824219 130.628906 L 244.882812 130.628906 L 244.882812 129.683594 L -9.824219 129.683594 Z M -9.824219 130.628906 " fill-opacity="1" fill-rule="nonzero"/></g><g clip-path="url(#496e640464)"><path fill="#004aad" d="M 7.320312 -6.582031 L -169.894531 173.753906 " fill-opacity="1" fill-rule="nonzero"/><path fill="#004aad" d="M 6.957031 -6.9375 L -170.257812 173.398438 L -169.53125 174.109375 L 7.6875 -6.222656 Z M 6.957031 -6.9375 " fill-opacity="1" fill-rule="nonzero"/></g><g clip-path="url(#2047532cf6)"><path fill="#004aad" d="M 217.6875 -6.582031 L 394.902344 173.753906 " fill-opacity="1" fill-rule="nonzero"/><path fill="#004aad" d="M 218.050781 -6.9375 L 217.320312 -6.222656 L 394.539062 174.109375 L 395.265625 173.398438 Z M 218.050781 -6.9375 " fill-opacity="1" fill-rule="nonzero"/></g><g clip-path="url(#4ca56bffc4)"><path fill="#004aad" d="M 201.503906 -6.582031 L 351.457031 173.753906 " fill-opacity="1" fill-rule="nonzero"/></g><g clip-path="url(#5f66499e11)"><path fill="#004aad" d="M 201.898438 -6.90625 L 201.113281 -6.257812 L 351.066406 174.082031 L 351.851562 173.425781 Z M 201.898438 -6.90625 " fill-opacity="1" fill-rule="nonzero"/></g><g clip-path="url(#a3401c98ca)"><path fill="#004aad" d="M 185.320312 -6.582031 L 308.011719 173.753906 " fill-opacity="1" fill-rule="nonzero"/></g><g clip-path="url(#e970989b81)"><path fill="#004aad" d="M 185.742188 -6.867188 L 184.898438 -6.292969 L 307.589844 174.039062 L 308.433594 173.46875 Z M 185.742188 -6.867188 " fill-opacity="1" fill-rule="nonzero"/></g><g clip-path="url(#eea58560c6)"><path fill="#004aad" d="M 169.140625 -6.582031 L 264.566406 173.753906 " fill-opacity="1" fill-rule="nonzero"/></g><g clip-path="url(#1a6ae1e13f)"><path fill="#004aad" d="M 169.59375 -6.820312 L 168.6875 -6.34375 L 264.109375 173.992188 L 265.015625 173.515625 Z M 169.59375 -6.820312 " fill-opacity="1" fill-rule="nonzero"/></g><g clip-path="url(#0d8228ec3e)"><path fill="#004aad" d="M 152.957031 -6.582031 L 221.117188 173.753906 " fill-opacity="1" fill-rule="nonzero"/></g><g clip-path="url(#d1ab287021)"><path fill="#004aad" d="M 153.433594 -6.761719 L 152.480469 -6.40625 L 220.640625 173.933594 L 221.597656 173.574219 Z M 153.433594 -6.761719 " fill-opacity="1" fill-rule="nonzero"/></g><g clip-path="url(#e2de55d3bc)"><path fill="#004aad" d="M 136.777344 -6.582031 L 177.671875 173.753906 " fill-opacity="1" fill-rule="nonzero"/></g><g clip-path="url(#ac7dcac0f0)"><path fill="#004aad" d="M 137.277344 -6.695312 L 136.28125 -6.46875 L 177.175781 173.867188 L 178.171875 173.640625 Z M 137.277344 -6.695312 " fill-opacity="1" fill-rule="nonzero"/></g><g clip-path="url(#90d63edfab)"><path fill="#004aad" d="M 120.59375 -6.582031 L 134.226562 173.753906 " fill-opacity="1" fill-rule="nonzero"/></g><g clip-path="url(#1af8d33428)"><path fill="#004aad" d="M 121.105469 -6.621094 L 120.085938 -6.542969 L 133.714844 173.792969 L 134.734375 173.714844 Z M 121.105469 -6.621094 " fill-opacity="1" fill-rule="nonzero"/></g><g clip-path="url(#48b462a32c)"><path fill="#004aad" d="M 104.410156 -6.582031 L 90.78125 173.753906 " fill-opacity="1" fill-rule="nonzero"/></g><g clip-path="url(#2229fcccc1)"><path fill="#004aad" d="M 103.902344 -6.621094 L 90.269531 173.714844 L 91.292969 173.792969 L 104.925781 -6.542969 Z M 103.902344 -6.621094 " fill-opacity="1" fill-rule="nonzero"/></g><g clip-path="url(#656308ddfb)"><path fill="#004aad" d="M 88.230469 -6.582031 L 47.332031 173.753906 " fill-opacity="1" fill-rule="nonzero"/></g><g clip-path="url(#576ff76345)"><path fill="#004aad" d="M 87.730469 -6.695312 L 46.835938 173.640625 L 47.832031 173.867188 L 88.726562 -6.46875 Z M 87.730469 -6.695312 " fill-opacity="1" fill-rule="nonzero"/></g><g clip-path="url(#ba3f6a2099)"><path fill="#004aad" d="M 72.046875 -6.582031 L 3.890625 173.753906 " fill-opacity="1" fill-rule="nonzero"/></g><g clip-path="url(#90d7284746)"><path fill="#004aad" d="M 71.570312 -6.761719 L 3.410156 173.574219 L 4.367188 173.933594 L 72.527344 -6.40625 Z M 71.570312 -6.761719 " fill-opacity="1" fill-rule="nonzero"/></g><g clip-path="url(#65a41950ff)"><path fill="#004aad" d="M 55.867188 -6.582031 L -39.558594 173.753906 " fill-opacity="1" fill-rule="nonzero"/></g><g clip-path="url(#6839fa028f)"><path fill="#004aad" d="M 55.414062 -6.820312 L -40.007812 173.515625 L -39.105469 173.992188 L 56.320312 -6.34375 Z M 55.414062 -6.820312 " fill-opacity="1" fill-rule="nonzero"/></g><g clip-path="url(#25fe0d4021)"><path fill="#004aad" d="M 39.6875 -6.582031 L -83.003906 173.753906 " fill-opacity="1" fill-rule="nonzero"/></g><g clip-path="url(#f83026b9d5)"><path fill="#004aad" d="M 39.265625 -6.867188 L -83.425781 173.46875 L -82.578125 174.039062 L 40.109375 -6.292969 Z M 39.265625 -6.867188 " fill-opacity="1" fill-rule="nonzero"/></g><g clip-path="url(#1d2dafe181)"><path fill="#004aad" d="M 23.503906 -6.582031 L -126.449219 173.753906 " fill-opacity="1" fill-rule="nonzero"/></g><g clip-path="url(#a3e2391a23)"><path fill="#004aad" d="M 23.109375 -6.90625 L -126.84375 173.425781 L -126.058594 174.082031 L 23.894531 -6.257812 Z M 23.109375 -6.90625 " fill-opacity="1" fill-rule="nonzero"/></g></svg>