<svg xmlns="http://www.w3.org/2000/svg" xmlns:xlink="http://www.w3.org/1999/xlink" width="200" zoomAndPan="magnify" viewBox="0 0 150 225" height="300" preserveAspectRatio="xMidYMid meet" version="1.0"><defs><clipPath id="5248d5f8ab"><path d="M 0 0.140625 L 150 0.140625 L 150 1.703125 L 0 1.703125 Z M 0 0.140625 " clip-rule="nonzero"/></clipPath><clipPath id="a84e0b2d40"><path d="M 0 3.261719 L 150 3.261719 L 150 4.820312 L 0 4.820312 Z M 0 3.261719 " clip-rule="nonzero"/></clipPath><clipPath id="d2c1d83733"><path d="M 0 7.160156 L 150 7.160156 L 150 9.5 L 0 9.5 Z M 0 7.160156 " clip-rule="nonzero"/></clipPath><clipPath id="37df80dcfd"><path d="M 0 13.402344 L 150 13.402344 L 150 14.960938 L 0 14.960938 Z M 0 13.402344 " clip-rule="nonzero"/></clipPath><clipPath id="866e5f8881"><path d="M 0 21 L 150 21 L 150 22.761719 L 0 22.761719 Z M 0 21 " clip-rule="nonzero"/></clipPath><clipPath id="aae21eada7"><path d="M 0 30.558594 L 150 30.558594 L 150 32.898438 L 0 32.898438 Z M 0 30.558594 " clip-rule="nonzero"/></clipPath><clipPath id="0c94c8333f"><path d="M 0 43.039062 L 150 43.039062 L 150 45 L 0 45 Z M 0 43.039062 " clip-rule="nonzero"/></clipPath><clipPath id="6df0a8fd88"><path d="M 0 58.640625 L 150 58.640625 L 150 60.199219 L 0 60.199219 Z M 0 58.640625 " clip-rule="nonzero"/></clipPath><clipPath id="9bcbb3431e"><path d="M 0 77 L 150 77 L 150 78.917969 L 0 78.917969 Z M 0 77 " clip-rule="nonzero"/></clipPath><clipPath id="eee0aee81a"><path d="M 0 99.199219 L 150 99.199219 L 150 101.539062 L 0 101.539062 Z M 0 99.199219 " clip-rule="nonzero"/></clipPath><clipPath id="49abb09b55"><path d="M 0 126.496094 L 150 126.496094 L 150 128.835938 L 0 128.835938 Z M 0 126.496094 " clip-rule="nonzero"/></clipPath><clipPath id="3d3b4bd15e"><path d="M 0 158.476562 L 150 158.476562 L 150 160 L 0 160 Z M 0 158.476562 " clip-rule="nonzero"/></clipPath><clipPath id="ba91c69e06"><path d="M 0 195.136719 L 150 195.136719 L 150 197.476562 L 0 197.476562 Z M 0 195.136719 " clip-rule="nonzero"/></clipPath><clipPath id="35f3dbbaad"><path d="M 134.058594 0 L 150 0 L 150 225 L 134.058594 225 Z M 134.058594 0 " clip-rule="nonzero"/></clipPath><clipPath id="d9a9186187"><path d="M 133.277344 0 L 150 0 L 150 225 L 133.277344 225 Z M 133.277344 0 " clip-rule="nonzero"/></clipPath><clipPath id="b37db0f8b7"><path d="M 109.140625 0 L 150 0 L 150 225 L 109.140625 225 Z M 109.140625 0 " clip-rule="nonzero"/></clipPath><clipPath id="42ab06e3f5"><path d="M 86.5625 0 L 106.804688 0 L 106.804688 225 L 86.5625 225 Z M 86.5625 0 " clip-rule="nonzero"/></clipPath><clipPath id="74341316e0"><path d="M 85.78125 0 L 107.585938 0 L 107.585938 225 L 85.78125 225 Z M 85.78125 0 " clip-rule="nonzero"/></clipPath><clipPath id="916f293d35"><path d="M 43 0 L 63.203125 0 L 63.203125 225 L 43 225 Z M 43 0 " clip-rule="nonzero"/></clipPath><clipPath id="f3a1163977"><path d="M 42.179688 0 L 63.980469 0 L 63.980469 225 L 42.179688 225 Z M 42.179688 0 " clip-rule="nonzero"/></clipPath><clipPath id="4c0f52b635"><path d="M 0 0 L 39.84375 0 L 39.84375 225 L 0 225 Z M 0 0 " clip-rule="nonzero"/></clipPath><clipPath id="8cb6e53ed4"><path d="M 0 0 L 40.621094 0 L 40.621094 225 L 0 225 Z M 0 0 " clip-rule="nonzero"/></clipPath><clipPath id="58ebf87afc"><path d="M 0 0 L 15.707031 0 L 15.707031 225 L 0 225 Z M 0 0 " clip-rule="nonzero"/></clipPath><clipPath id="8ef560c3dc"><path d="M 0 0 L 16.484375 0 L 16.484375 225 L 0 225 Z M 0 0 " clip-rule="nonzero"/></clipPath></defs><g clip-path="url(#5248d5f8ab)"><path fill="#004aad" d="M -104.203125 1.667969 L 265.773438 1.667969 L 265.773438 0.277344 L -104.203125 0.277344 Z M -104.203125 1.667969 " fill-opacity="1" fill-rule="nonzero"/></g><g clip-path="url(#a84e0b2d40)"><path fill="#004aad" d="M -104.203125 4.757812 L 265.816406 4.757812 L 265.816406 3.367188 L -104.203125 3.367188 Z M -104.203125 4.757812 " fill-opacity="1" fill-rule="nonzero"/></g><g clip-path="url(#d2c1d83733)"><path fill="#004aad" d="M -104.203125 9.070312 L 265.882812 9.070312 L 265.882812 7.683594 L -104.203125 7.683594 Z M -104.203125 9.070312 " fill-opacity="1" fill-rule="nonzero"/></g><g clip-path="url(#37df80dcfd)"><path fill="#004aad" d="M -104.203125 14.898438 L 265.96875 14.898438 L 265.96875 13.507812 L -104.203125 13.507812 Z M -104.203125 14.898438 " fill-opacity="1" fill-rule="nonzero"/></g><g clip-path="url(#866e5f8881)"><path fill="#004aad" d="M -104.203125 22.542969 L 266.078125 22.542969 L 266.078125 21.152344 L -104.203125 21.152344 Z M -104.203125 22.542969 " fill-opacity="1" fill-rule="nonzero"/></g><g clip-path="url(#aae21eada7)"><path fill="#004aad" d="M -104.203125 32.355469 L 266.226562 32.355469 L 266.226562 30.964844 L -104.203125 30.964844 Z M -104.203125 32.355469 " fill-opacity="1" fill-rule="nonzero"/></g><g clip-path="url(#0c94c8333f)"><path fill="#004aad" d="M -104.203125 44.71875 L 266.414062 44.71875 L 266.414062 43.324219 L -104.203125 43.324219 Z M -104.203125 44.71875 " fill-opacity="1" fill-rule="nonzero"/></g><g clip-path="url(#6df0a8fd88)"><path fill="#004aad" d="M -104.203125 60.027344 L 266.640625 60.027344 L 266.640625 58.640625 L -104.203125 58.640625 Z M -104.203125 60.027344 " fill-opacity="1" fill-rule="nonzero"/></g><g clip-path="url(#9bcbb3431e)"><path fill="#004aad" d="M -104.203125 78.730469 L 266.917969 78.730469 L 266.917969 77.339844 L -104.203125 77.339844 Z M -104.203125 78.730469 " fill-opacity="1" fill-rule="nonzero"/></g><g clip-path="url(#eee0aee81a)"><path fill="#004aad" d="M -104.203125 101.285156 L 267.257812 101.285156 L 267.257812 99.898438 L -104.203125 99.898438 Z M -104.203125 101.285156 " fill-opacity="1" fill-rule="nonzero"/></g><g clip-path="url(#49abb09b55)"><path fill="#004aad" d="M -104.203125 128.199219 L 267.65625 128.199219 L 267.65625 126.816406 L -104.203125 126.816406 Z M -104.203125 128.199219 " fill-opacity="1" fill-rule="nonzero"/></g><g clip-path="url(#3d3b4bd15e)"><path fill="#004aad" d="M -104.203125 159.992188 L 268.132812 159.992188 L 268.132812 158.601562 L -104.203125 158.601562 Z M -104.203125 159.992188 " fill-opacity="1" fill-rule="nonzero"/></g><g clip-path="url(#ba91c69e06)"><path fill="#004aad" d="M -104.203125 197.214844 L 268.683594 197.214844 L 268.683594 195.824219 L -104.203125 195.824219 Z M -104.203125 197.214844 " fill-opacity="1" fill-rule="nonzero"/></g><g clip-path="url(#35f3dbbaad)"><path fill="#004aad" d="M 134.105469 -4.445312 L 233.890625 260.59375 " fill-opacity="1" fill-rule="nonzero"/></g><g clip-path="url(#d9a9186187)"><path fill="#004aad" d="M 134.804688 -4.710938 L 133.402344 -4.183594 L 233.1875 260.859375 L 234.589844 260.328125 Z M 134.804688 -4.710938 " fill-opacity="1" fill-rule="nonzero"/></g><path fill="#004aad" d="M 110.414062 -4.445312 L 170.285156 260.59375 " fill-opacity="1" fill-rule="nonzero"/><g clip-path="url(#b37db0f8b7)"><path fill="#004aad" d="M 111.148438 -4.609375 L 109.6875 -4.277344 L 169.558594 260.761719 L 171.019531 260.425781 Z M 111.148438 -4.609375 " fill-opacity="1" fill-rule="nonzero"/></g><g clip-path="url(#42ab06e3f5)"><path fill="#004aad" d="M 86.726562 -4.445312 L 106.683594 260.59375 " fill-opacity="1" fill-rule="nonzero"/></g><g clip-path="url(#74341316e0)"><path fill="#004aad" d="M 87.472656 -4.5 L 85.980469 -4.386719 L 105.9375 260.652344 L 107.425781 260.535156 Z M 87.472656 -4.5 " fill-opacity="1" fill-rule="nonzero"/></g><g clip-path="url(#916f293d35)"><path fill="#004aad" d="M 63.035156 -4.445312 L 43.078125 260.59375 " fill-opacity="1" fill-rule="nonzero"/></g><g clip-path="url(#f3a1163977)"><path fill="#004aad" d="M 62.289062 -4.5 L 42.332031 260.535156 L 43.828125 260.652344 L 63.785156 -4.386719 Z M 62.289062 -4.5 " fill-opacity="1" fill-rule="nonzero"/></g><g clip-path="url(#4c0f52b635)"><path fill="#004aad" d="M 39.347656 -4.445312 L -20.527344 260.59375 " fill-opacity="1" fill-rule="nonzero"/></g><g clip-path="url(#8cb6e53ed4)"><path fill="#004aad" d="M 38.613281 -4.609375 L -21.253906 260.425781 L -19.796875 260.761719 L 40.074219 -4.277344 Z M 38.613281 -4.609375 " fill-opacity="1" fill-rule="nonzero"/></g><g clip-path="url(#58ebf87afc)"><path fill="#004aad" d="M 15.65625 -4.445312 L -84.128906 260.59375 " fill-opacity="1" fill-rule="nonzero"/></g><g clip-path="url(#8ef560c3dc)"><path fill="#004aad" d="M 14.953125 -4.710938 L -84.832031 260.328125 L -83.425781 260.859375 L 16.355469 -4.183594 Z M 14.953125 -4.710938 " fill-opacity="1" fill-rule="nonzero"/></g></svg>